<?xml version="1.0" standalone="no"?>
<!DOCTYPE svg PUBLIC "-//W3C//DTD SVG 20010904//EN"
 "http://www.w3.org/TR/2001/REC-SVG-20010904/DTD/svg10.dtd">
<svg version="1.0" xmlns="http://www.w3.org/2000/svg"
 width="800.000000pt" height="800.000000pt" viewBox="0 0 800.000000 800.000000"
 preserveAspectRatio="xMidYMid meet">

<g transform="translate(0.000000,800.000000) scale(0.100000,-0.100000)"
fill="#000000" stroke="none">
<path d="M1593 4474 c-97 -16 -135 -30 -192 -70 l-50 -34 -233 -2 c-225 -3
-233 -4 -233 -23 0 -19 8 -20 218 -23 197 -2 218 -4 213 -18 -33 -85 -28 -159
15 -232 10 -18 19 -35 19 -38 0 -2 -106 -4 -236 -4 -219 0 -235 -1 -232 -17 3
-17 24 -18 256 -20 l252 -1 113 -45 c61 -25 154 -55 204 -68 117 -29 163 -62
163 -118 0 -20 -5 -42 -12 -49 -8 -8 -65 -12 -188 -12 -196 0 -201 1 -215 69
l-7 33 -87 -7 c-47 -4 -90 -9 -94 -12 -5 -3 -5 -22 -2 -44 l7 -39 -194 -2
c-174 -3 -193 -5 -196 -20 -3 -17 11 -18 193 -18 l197 0 26 -29 c15 -16 44
-47 65 -69 50 -54 109 -81 217 -99 81 -14 99 -14 182 0 122 21 190 56 244 127
23 30 52 58 65 61 13 4 67 7 120 8 l97 1 61 -61 c39 -38 86 -72 129 -92 64
-31 72 -32 192 -32 115 0 130 2 182 27 32 15 88 56 127 92 l70 66 93 0 c51 0
98 -4 105 -8 7 -5 13 -40 15 -92 l3 -85 350 0 350 0 0 75 0 75 -255 5 c-140 3
-250 8 -245 11 6 4 159 10 340 14 l330 7 50 -52 c99 -102 217 -152 365 -153
145 -2 247 39 351 139 l66 64 140 0 141 0 61 -61 c76 -75 159 -115 281 -137
82 -14 98 -14 178 0 151 27 305 99 332 156 l15 32 268 0 267 0 0 -55 0 -54
129 62 c72 34 130 67 130 72 0 8 -171 93 -242 121 -15 5 -17 -1 -17 -45 l0
-51 -270 0 -271 0 3 143 3 142 435 0 435 0 3 -53 c2 -29 7 -52 12 -50 31 12
250 123 250 128 0 9 -230 122 -247 121 -4 0 -10 -22 -13 -48 l-5 -48 -804 -3
-803 -2 7 47 c14 94 80 185 157 217 24 10 68 16 120 16 114 -1 153 -20 208
-100 37 -54 45 -61 68 -56 15 3 53 8 85 12 32 4 61 12 63 19 3 7 -6 38 -20 70
-15 32 -26 59 -26 61 0 3 136 3 303 2 l302 -3 3 -52 3 -52 132 65 c72 36 133
67 135 69 3 2 -6 9 -19 14 -13 5 -72 32 -130 60 -58 28 -109 51 -112 51 -3 0
-7 -21 -9 -47 l-3 -48 -324 -3 -324 -2 -46 29 c-55 35 -144 66 -227 78 -91 14
-195 -7 -307 -62 l-93 -45 -217 0 -216 0 -79 40 c-185 93 -347 93 -520 -1
l-74 -39 -376 2 -377 3 -3 42 c-4 51 -13 55 -122 51 l-75 -3 -3 -47 -3 -48
-136 0 -136 0 -71 40 c-168 92 -314 92 -483 0 l-72 -40 -193 0 -194 0 -54 35
c-96 62 -217 88 -327 69z m709 -181 c-10 -16 -36 -81 -57 -146 l-37 -119 -167
4 c-170 4 -204 10 -406 70 -136 40 -172 72 -149 136 19 52 55 67 169 67 101 0
104 -1 135 -30 17 -16 36 -47 42 -68 l12 -39 88 4 c97 5 113 12 100 49 -5 13
-12 41 -16 62 l-7 37 156 0 156 0 -19 -27z m953 -118 l0 -140 -395 -3 c-217
-1 -406 0 -419 3 -22 6 -23 9 -16 53 22 147 104 222 244 222 106 0 162 -33
196 -113 9 -21 21 -40 28 -42 7 -3 48 1 92 8 58 9 81 16 83 28 2 12 -16 62
-46 122 -2 4 49 6 115 5 l118 -3 0 -140z m915 140 c0 -2 -13 -26 -28 -52 -35
-60 -62 -137 -62 -179 0 -17 -6 -37 -14 -43 -9 -8 -99 -11 -307 -9 l-294 3 -3
129 c-1 72 0 136 2 143 4 10 77 13 356 13 192 0 350 -2 350 -5z m512 -32 c61
-33 103 -85 129 -158 36 -104 59 -96 -253 -93 l-273 3 -3 26 c-2 14 7 51 18
83 58 154 235 219 382 139z m598 32 c0 -2 -17 -34 -37 -71 -20 -37 -44 -99
-53 -138 l-17 -71 -68 0 -68 0 -18 77 c-18 76 -59 170 -79 183 -32 19 5 25
165 25 96 0 175 -2 175 -5z m-3070 -333 c0 -45 25 -185 40 -226 11 -28 20 -52
20 -53 0 -2 -45 -3 -100 -3 l-100 0 0 40 c0 66 -30 157 -67 199 -18 22 -33 42
-33 45 0 3 54 6 120 6 66 0 120 -3 120 -8z m1045 -137 l0 -140 -102 -3 c-57
-1 -103 0 -103 3 0 3 7 20 16 37 9 17 12 34 7 38 -13 11 -125 42 -157 44 -25
1 -30 -5 -48 -49 -11 -27 -24 -55 -30 -62 -8 -10 -54 -13 -172 -13 -181 0
-181 0 -221 79 -17 35 -32 168 -22 195 6 15 49 16 419 14 l413 -3 0 -140z
m822 45 c10 -87 19 -126 38 -172 7 -17 -13 -18 -324 -18 l-331 0 0 145 0 145
303 -2 302 -3 12 -95z m747 20 c-1 -53 -8 -90 -24 -125 -38 -89 -28 -85 -245
-85 -218 0 -214 -1 -253 90 -21 47 -38 172 -27 190 4 7 97 9 278 8 l272 -3 -1
-75z m350 58 c3 -13 10 -63 17 -113 6 -49 18 -102 25 -117 8 -15 14 -29 14
-33 0 -3 -56 -5 -125 -5 -69 0 -125 2 -125 3 0 2 6 17 14 33 8 16 20 70 26
119 19 148 11 135 85 135 59 0 65 -2 69 -22z m496 -58 l5 -75 113 -3 112 -3 0
-64 0 -65 -219 0 -220 0 -19 28 c-39 55 -53 94 -60 172 -5 44 -6 83 -3 86 3 2
68 3 145 2 l141 -3 5 -75z m-3931 -256 c17 -4 31 -10 31 -15 0 -10 -65 -29
-100 -29 -35 0 -100 19 -100 30 0 16 113 25 169 14z m2909 -9 c24 -24 -91 -43
-155 -26 -83 23 -39 42 81 36 37 -2 71 -7 74 -10z m1121 -1 c18 -17 -90 -39
-142 -29 -77 16 -90 30 -34 38 37 6 168 -1 176 -9z m-3071 -11 c-15 -2 -42 -2
-60 0 -18 2 -6 4 27 4 33 0 48 -2 33 -4z"/>
</g>
</svg>
