<?xml version="1.0" encoding="UTF-8"?>
<svg id="svg8" xmlns="http://www.w3.org/2000/svg" viewBox="0 0 305.74 241.53">
  <defs>
    <style>
      .cls-1 {
        letter-spacing: .98em;
      }

      .cls-2 {
        fill: #fff;
      }

      .cls-3 {
        letter-spacing: 1.01em;
      }

      .cls-4 {
        fill: #45794e;
      }

      .cls-5 {
        letter-spacing: 1.01em;
      }

      .cls-6 {
        font-family: Nexa-ExtraBold, Nexa;
        font-size: 18.25px;
        font-weight: 700;
      }

      .cls-7 {
        fill: #c62532;
      }

      .cls-8 {
        letter-spacing: .98em;
      }
    </style>
  </defs>
  <text class="cls-6" transform="translate(73.71 228.93)"><tspan class="cls-3" x="0" y="0">ENE</tspan><tspan class="cls-5" x="93.66" y="0">R</tspan><tspan class="cls-1" x="125.23" y="0">G</tspan><tspan class="cls-8" x="156.83" y="0">Y</tspan></text>
  <rect class="cls-4" y="139.76" width="305.74" height="67.34"/>
  <rect class="cls-7" width="305.74" height="145.15"/>
  <path class="cls-2" d="M237.32,67.41c-.3-.2-.4-1.12-.78-1.36-1.7-1.09-4.33,1.85-6.02,2.61-6.99,3.17-12.47-1.88-19.24-3.83-14.51-4.19-31.55-3.75-46.48-2.15-8.12.87-18.88,4.17-26.49,4.3-4.57.08-10.3-1.52-14.79-1.83-15.77-1.11-31.59-1.61-47.4-.62-3.93.25-18.12.99-20.61,2.78-.59.43-1.35.99-1.25,1.81.11.47,2.46,1.72,3.06,1.87,5.78,1.49,23.75-1.97,31.09-2.19,9.16-.28,22.22.44,31.42,1.27,2.78.25,12.42,1.37,13.58,3.68,1.55,3.09-6.85,9.05-9.36,10.35-5.78,2.98-9.9.79-14.34,2.29-1.74.59-6.58,5.74-8.7,7.3-2.49,1.82-6.76,4.59-9.48,5.91-2.96,1.44-7.46,1.75-9.27,3.04-2.7,1.93-4.32,5.19.17,6.01,12.4,2.28,20.2-10.36,30.79-12,6.76-1.05,15.01.68,21.86-.31,5.03-.73,12.42-5.68,17.62-7.62,16.94-6.34,25.34.42,41.1,4.66,10.09,2.72,20.47,4.24,30.56,6.99,8.03,2.19,23.77,9.15,30.97,9.1,1.14,0,2.27-.3,3.3-.75,1.21-5.8-7.59-3.79-12.05-5.33-3.37-1.16-16.17-9.15-19.23-11.55-1.57-1.23-2.92-2.36-2.5-4.56.5-.59,13.1.38,14.94.74,2.01.4,3.87,2.48,5.54,2.23,1.14-.18,6.27-4.48,6.75-5.6,1.67-3.88-3.47-13.79-7.59-15.47-2.1-.86-5.4-.55-7.17-1.78Z"/>
  <g>
    <path class="cls-2" d="M101.33,156.19h-27.59l-30.65,41.22h17.16l7.66-10.57s1.07.15,13.64,1.07c16.09,1.23,20.23-6.74,22.84-10.27,15.17-20.54-3.06-21.45-3.06-21.45ZM90.72,173.24c-3.1,3.91-5.63,3.56-5.63,3.56l-6.21-.46,5.29-8.28h6.55s3.1,1.26,0,5.17Z"/>
    <path class="cls-2" d="M123.85,155.73l-19.77,26.67s-9.96,15.48,6.59,15.48h19.77s10.73-1.23,18.7-12.87c7.97-11.65,21.14-29.26,21.14-29.26h-18.15s-19.72,27.02-19.72,27.02c-1.03,1.3-2.23,2.16-3.76,2.69-1.33.54-3.03.79-4.64-.45-2.53-2.2.92-5.98.92-5.98l18.96-23.29h-20.03Z"/>
    <polygon class="cls-2" points="142.63 197.43 173.21 156.17 189.41 156.17 190.33 166.52 206.42 156.17 228.61 156.17 198.38 197.43 179.3 197.43 191.82 180.08 176.88 187.55 174.12 178.12 161.25 197.43 142.63 197.43"/>
    <path class="cls-2" d="M259.07,155.96h-27.13l-30.34,40.92,17.78.77,5.67-8.89h11.65l-5.82,8.89h18.39s5.82-7.51,16.86-24.06c11.03-16.55-7.05-17.62-7.05-17.62ZM250.18,172.44c-2.3,4.21-5.52,3.98-5.52,3.98l-9.89-.46.46-.77,4.9-7.28h8.89s3.45.31,1.15,4.52Z"/>
  </g>
</svg>