<svg width="12" height="12" viewBox="0 0 12 12" fill="none" xmlns="http://www.w3.org/2000/svg">
<g clip-path="url(#clip0_122_1015)">
<path d="M11.2501 11.8398C11.0914 11.8398 10.9561 11.7792 10.8441 11.6578L8.21211 9.03984C7.79211 9.36651 7.32078 9.61851 6.79811 9.79584C6.25678 9.99184 5.70144 10.0898 5.13211 10.0898C4.23611 10.0898 3.40078 9.86584 2.62611 9.41784C1.87944 8.96984 1.28211 8.37251 0.834109 7.62584C0.386109 6.85118 0.162109 6.01584 0.162109 5.11984C0.162109 4.22384 0.386109 3.39318 0.834109 2.62784C1.28211 1.87184 1.87944 1.27451 2.62611 0.835843C3.40078 0.387843 4.23611 0.163843 5.13211 0.163843C6.02811 0.163843 6.85878 0.387843 7.62411 0.835843C8.38011 1.27451 8.97744 1.87184 9.41611 2.62784C9.86411 3.39318 10.0881 4.22384 10.0881 5.11984C10.0881 6.23984 9.73811 7.27118 9.03811 8.21384L11.6561 10.8458C11.7774 10.9672 11.8381 11.1048 11.8381 11.2588C11.8381 11.4128 11.7798 11.5482 11.6631 11.6648C11.5464 11.7815 11.4088 11.8398 11.2501 11.8398ZM5.13211 1.33984C4.44144 1.33984 3.80678 1.50784 3.22811 1.84384C2.64944 2.17984 2.18978 2.63718 1.84911 3.21584C1.50844 3.79451 1.33811 4.42918 1.33811 5.11984C1.33811 5.81051 1.50844 6.44518 1.84911 7.02384C2.18978 7.60251 2.64944 8.06218 3.22811 8.40284C3.80678 8.74351 4.44144 8.91384 5.13211 8.91384C5.64544 8.91384 6.13078 8.81818 6.58811 8.62684C7.04544 8.43551 7.45144 8.16251 7.80611 7.80784C8.16078 7.45318 8.43378 7.04718 8.62511 6.58984C8.81644 6.13251 8.91211 5.64251 8.91211 5.11984C8.91211 4.42918 8.74411 3.79451 8.40811 3.21584C8.07211 2.63718 7.61478 2.17984 7.03611 1.84384C6.45744 1.50784 5.82278 1.33984 5.13211 1.33984Z" fill="white"/>
</g>
<defs>
<clipPath id="clip0_122_1015">
<rect width="12" height="12" fill="white" transform="matrix(1 0 0 -1 0 12)"/>
</clipPath>
</defs>
</svg>
