<?xml version="1.0" encoding="UTF-8"?>
<svg id="svg8" xmlns="http://www.w3.org/2000/svg" viewBox="0 0 305.74 241.53">
  <defs>
    <style>
      .cls-1 {
        fill: #f7f746;
        stroke: #000;
        stroke-miterlimit: 10;
        stroke-width: 1.87px;
      }
    </style>
  </defs>
  <g>
    <rect class="cls-1" x="80.2" y="28.36" width="141.53" height="141.53"/>
    <polygon points="208.48 141.75 171.99 141.75 149.76 119.52 149.81 119.47 149.71 119.47 90.27 60.04 126.77 60.04 149.76 83.03 149.69 83.1 149.83 83.1 186.2 119.47 208.48 141.75"/>
    <polygon points="149.71 119.47 149.81 119.47 149.76 119.52 149.71 119.47"/>
    <polygon points="149.83 83.1 149.69 83.1 149.76 83.03 149.83 83.1"/>
    <polygon points="149.81 119.47 127.53 141.75 91.03 141.75 113.31 119.47 149.81 119.47"/>
    <polygon points="209.24 60.04 186.18 83.1 149.69 83.1 172.75 60.04 209.24 60.04"/>
  </g>
  <g>
    <polygon points="207.46 185.24 207.46 216.17 200.13 216.17 200.13 210.09 185.91 195.87 185.91 216.17 178.58 216.17 178.58 192.38 185.83 185.31 200.13 199.61 200.13 185.24 207.46 185.24"/>
    <polygon points="66.9 185.32 66.9 216.17 59.86 216.17 59.86 192.36 66.9 185.32"/>
    <polygon points="96.91 209.14 91.01 216.17 70.42 216.17 70.42 192.83 77.89 185.35 77.89 209.14 96.91 209.14"/>
    <polygon points="121.15 209.14 142.99 209.14 142.99 216.17 113.96 216.17 113.96 192.32 119.9 185.24 142.99 185.24 142.99 192.72 121.15 192.72 121.15 209.14"/>
    <path d="M151.5,185.24l-5.15,6.14v24.79h28.88v-30.94h-23.73ZM168.19,209.14h-14.96v-16.42h14.96v16.42Z"/>
    <path d="M32.9,185.24l-5.15,6.14v24.79h28.88v-30.94h-23.73ZM49.59,209.14h-14.96v-16.42h14.96v16.42Z"/>
    <path d="M250.46,185.24l-5.15,6.14v24.79h28.88v-30.94h-23.73ZM267.15,209.14h-14.96v-16.42h14.96v16.42Z"/>
    <polygon points="220.36 192.72 220.36 209.14 234.58 209.14 234.58 200.2 241.91 200.2 241.91 216.17 216.7 216.17 211.12 210.6 211.12 192.88 211.25 192.72 217.54 185.24 241.91 185.24 241.91 192.72 220.36 192.72"/>
  </g>
</svg>